<svg t="1635215138559" class="icon" viewBox="0 0 1024 1024" version="1.1" xmlns="http://www.w3.org/2000/svg" p-id="3327" width="200" height="200">
    <path d="M511.488 946.176c-236.544 0-429.568-192.512-429.568-429.568S274.944 87.04 511.488 87.04s429.568 192.512 429.568 429.568-192.512 429.568-429.568 429.568z m0-807.936C303.104 138.24 133.12 308.224 133.12 516.608s169.472 378.368 378.368 378.368c208.384 0 378.368-169.472 378.368-378.368 0-208.384-169.472-378.368-378.368-378.368z" fill="#000000" p-id="3328"></path><path d="M419.328 689.152c-10.24-10.24-10.24-26.112 0-36.352l308.736-308.736c10.24-10.24 26.112-10.24 36.352 0s10.24 26.112 0 36.352L455.68 689.152c-10.24 9.728-26.624 9.728-36.352 0z" fill="#000000" p-id="3329"></path><path d="M445.44 689.152c-10.24 10.24-26.112 10.24-36.352 0l-150.016-150.016c-10.24-10.24-10.24-26.112 0-36.352s26.112-10.24 36.352 0L445.44 652.8c10.24 9.728 10.24 26.112 0 36.352z" fill="#000000" p-id="3330">
</path>
</svg>