<svg t="1645596117744" class="icon" viewBox="0 0 1024 1024" version="1.1" xmlns="http://www.w3.org/2000/svg" p-id="3174" width="128" height="128"><path d="M512 323.930839a16.516129 16.516129 0 0 1-16.516129-16.516129V198.193548a16.516129 16.516129 0 0 1 33.032258 0v109.221162a16.516129 16.516129 0 0 1-16.516129 16.516129zM247.630452 433.441032a16.474839 16.474839 0 0 1-11.681033-4.839226L158.72 351.368258a16.516129 16.516129 0 0 1 23.357935-23.357935l77.22942 77.233548a16.516129 16.516129 0 0 1-11.676903 28.197161zM138.124387 697.806452H28.903226a16.516129 16.516129 0 0 1 0-33.032258h109.221161a16.516129 16.516129 0 0 1 0 33.032258zM995.096774 697.806452h-109.221161a16.516129 16.516129 0 0 1 0-33.032258H995.096774a16.516129 16.516129 0 0 1 0 33.032258z" fill="#6E6E96" p-id="3175"></path><path d="M791.291871 683.354839c0-0.693677 0.049548-1.370839 0.049548-2.064516 0-154.273032-125.064258-279.33729-279.329032-279.337291-154.273032 0-279.341419 125.064258-279.341419 279.337291 0 0.693677 0.045419 1.370839 0.053677 2.064516h558.567226z" fill="#FFD500" p-id="3176"></path><path d="M246.197677 681.290323a253.646452 253.646452 0 0 1-1.147871-23.741936c0-138.88 112.586323-251.466323 251.466323-251.466322s251.466323 112.586323 251.466323 251.466322a257.940645 257.940645 0 0 1-1.147871 23.741936h40.270451c0.020645-1.379097 0.103226-2.741677 0.103226-4.129033 0-154.273032-125.064258-279.33729-279.33729-279.33729S228.533677 522.888258 228.533677 677.16129c0 1.387355 0.08671 2.749935 0.103226 4.129033h17.560774z" fill="#E69900" opacity=".46" p-id="3177"></path><path d="M776.369548 433.441032a16.516129 16.516129 0 0 1-11.676903-28.193032l77.22529-77.233548a16.516129 16.516129 0 1 1 23.353807 23.357935l-77.22529 77.233548a16.466581 16.466581 0 0 1-11.676904 4.835097z" fill="#6E6E96" p-id="3178"></path><path d="M274.659097 681.290323c8.576-132.830968 118.969806-237.935484 253.968516-237.935484S774.020129 548.459355 782.592 681.290323h4.554323c0.024774-1.374968 0.066065-2.741677 0.066064-4.124904 0-154.268903-125.064258-279.33729-279.329032-279.33729-154.273032 0-279.33729 125.060129-279.33729 279.333161 0 1.387355 0.08671 2.749935 0.103225 4.129033h46.009807z" fill="#FFE97D" p-id="3179"></path><path d="M791.33729 697.806452a16.516129 16.516129 0 0 1-16.516129-16.516129c0-144.920774-117.904516-262.821161-262.821161-262.821162S249.178839 536.369548 249.178839 681.290323a16.516129 16.516129 0 0 1-33.032258 0c0-163.133935 132.719484-295.853419 295.853419-295.85342s295.853419 132.719484 295.853419 295.85342a16.516129 16.516129 0 0 1-16.516129 16.516129zM1005.419355 860.903226H28.903226a16.516129 16.516129 0 0 1 0-33.032258h976.516129a16.516129 16.516129 0 0 1 0 33.032258z" fill="#6E6E96" p-id="3180"></path></svg>