<svg t="1645596816632" class="icon" viewBox="0 0 1024 1024" version="1.1" xmlns="http://www.w3.org/2000/svg" p-id="10764" width="128" height="128"><path d="M447.449946 25.038001c-17.785327 0-35.336966 0.963963-52.609013 2.841813 168.221984 60.028608 288.646424 220.735019 288.646424 409.57997 0 240.131123-194.653767 434.776545-434.776545 434.776545-56.156064 0-109.804154-10.649497-159.09146-30.012218 88.964191 96.362921 216.37006 156.746234 357.851459 156.746234 268.937344 0 486.951566-218.018395 486.951567-486.959912C934.405686 243.06057 716.38729 25.038001 447.449946 25.038001z" fill="#FFF278" p-id="10765"></path><path d="M66.530142 276.227575h150.228007v33.384002h-150.228007z" fill="#6E6E96" p-id="10766"></path><path d="M124.952145 211.546072h33.384002v227.428511h-33.384002z" fill="#6E6E96" p-id="10767"></path><path d="M534.169064 29.369575c199.63633 53.418576 345.98762 227.77487 345.991792 434.63049 0 249.3618-212.631052 451.489411-474.929153 451.489411-79.558249 0-154.53037-18.640792-220.401178-51.524034a432.50226 432.50226 0 0 1-99.400865-25.935196c88.964191 96.362921 216.37006 156.746234 357.851459 156.746234 268.937344 0 486.951566-218.018395 486.951567-486.959913 0-237.861011-170.571383-435.865698-396.063622-478.446992z" fill="#FFD978" p-id="10768"></path><path d="M285.591788 580.280716h119.898641v33.384001H285.591788z" fill="#6E6E96" p-id="10769"></path><path d="M328.849108 532.015795h33.384001v181.525509h-33.384001z" fill="#6E6E96" p-id="10770"></path><path d="M447.462465 1011.480999c-140.09179 0-274.992367-59.08551-370.111733-162.116884a16.687828 16.687828 0 0 1 18.369547-26.861603c48.728123 19.149898 100.202081 28.860469 152.98636 28.86047 230.533223 0 418.084544-187.547148 418.084544-418.084544 0-176.338469-111.544295-334.62454-277.567108-393.860278a16.692001 16.692001 0 0 1 3.814122-32.315714C411.044693 5.162001 429.347472 4.173 447.449946 4.173c277.713163 0 503.64774 225.93875 503.656087 503.64774 0 277.721509-225.934577 503.660259-503.643568 503.660259zM153.36193 874.681707c82.917514 66.342357 186.883641 103.415291 294.100535 103.415291 259.310232 0 470.259566-210.961852 470.259566-470.267912-0.008346-252.804525-200.529352-459.655972-450.859288-469.875649 141.977986 78.50248 233.308268 229.523357 233.308269 395.333347 0 248.936154-202.528219 451.468546-451.468546 451.468545-32.328233 0-64.205781-3.375957-95.340536-10.073622z" fill="#6E6E96" p-id="10771"></path></svg>