<svg t="1637648810946" class="icon" viewBox="0 0 1024 1024" version="1.1" xmlns="http://www.w3.org/2000/svg" p-id="31686" width="200" height="200"><path d="M235.2128 116.4288S17.7664 175.8208 44.8 338.5856c10.1376 52.6848 43.5712 75.9808 62.8224 90.1632 19.2512 14.1824 56.7296 42.5472 60.7744 74.9568s-24.32 61.7984-66.8672 90.1632-72.96 82.5344-51.712 149.1456c21.248 66.6112 119.552 186.1632 328.192 182.0672s366.6944-198.5536 383.8976-332.2368 22.784-284.8256-177.6128-425.7792C424.96 54.9376 235.2128 116.4288 235.2128 116.4288z" fill="#4B8DFD" p-id="31687"></path><path d="M216.2688 338.5856m-59.0848 0a59.0848 59.0848 0 1 0 118.1696 0 59.0848 59.0848 0 1 0-118.1696 0Z" fill="#FCE24E" p-id="31688"></path><path d="M416.7168 279.5008m-59.0848 0a59.0848 59.0848 0 1 0 118.1696 0 59.0848 59.0848 0 1 0-118.1696 0Z" fill="#F9BA82" p-id="31689"></path><path d="M584.5504 397.6192m-59.0848 0a59.0848 59.0848 0 1 0 118.1696 0 59.0848 59.0848 0 1 0-118.1696 0Z" fill="#81DA9F" p-id="31690"></path><path d="M239.5648 704.512m-59.0848 0a59.0848 59.0848 0 1 0 118.1696 0 59.0848 59.0848 0 1 0-118.1696 0Z" fill="#F46554" p-id="31691"></path><path d="M498.8928 560.64l124.3136 123.5968a18.89792 18.89792 0 0 0 26.5216 0.1536c71.3216-69.2224 400.9472-396.8 324.9664-467.3536-75.8272-70.4-404.8384 246.7328-475.7504 316.7744a18.80576 18.80576 0 0 0-0.0512 26.8288z" fill="#F29727" p-id="31692"></path><path d="M623.2064 684.2368L498.8928 560.64c-2.5088-2.5088-4.1472-5.5808-4.9664-8.8064-44.544 11.9296-88.1664 31.488-102.7584 63.2832-26.4192 57.6512-33.8432 129.8944-93.3888 153.088-20.4288 7.9872-22.6304 36.4032-3.9424 47.872 54.3232 33.3824 131.4816 60.8256 222.8224 24.9344 22.272-8.7552 42.9056-21.504 59.5968-38.656 26.1632-26.88 46.08-62.9248 51.6608-114.7904-1.6896-0.8704-3.2768-1.9456-4.7104-3.328z" fill="#FEF2E9" p-id="31693"></path><path d="M117.9648 582.1952s0.0512 0 0 0c-5.2224 3.8912-10.7008 7.7824-16.4864 11.6224-42.5472 28.3648-72.9088 82.5344-51.6608 149.1456 10.3936 32.4608 39.1168 77.5168 90.0096 114.688-142.848-135.1168-21.8624-275.456-21.8624-275.456zM694.4256 268.3392c-26.9312-34.0992-62.7712-67.9424-110.1312-101.2736-159.3344-112.128-349.0816-50.6368-349.0816-50.6368S17.7664 175.8208 44.7488 338.5856c10.1376 52.6848 43.5712 75.9808 62.8224 90.1632 7.0656 5.2224 16.5376 12.3392 25.9584 20.8384-163.7376-160.6144 49.6128-258.7648 105.984-285.8496 248.832-91.9552 453.9392 103.6288 454.912 104.6016z" fill="#76A4FF" p-id="31694"></path><path d="M271.1552 316.7744c-9.9328-25.088-36.1472-40.9088-63.9488-36.608-32.256 5.0176-54.3232 35.1744-49.3056 67.4304 2.5088 16.2304 11.4688 29.9008 23.808 38.8096-22.528-28.8256-9.8816-61.6448 5.3248-75.6736 32.7168-28.0064 75.1616-0.3584 84.1216 6.0416z" fill="#FFE578" p-id="31695"></path><path d="M181.7088 386.4576a58.8288 58.8288 0 0 0 43.6224 10.496c32.256-5.0176 54.3232-35.1744 49.3056-67.4304-0.7168-4.4544-1.8944-8.704-3.4816-12.7488 0 0-17.152 92.3648-89.4464 69.6832z" fill="#E8C534" p-id="31696"></path><path d="M294.4 681.1136c-9.9328-25.088-36.1472-40.9088-63.9488-36.608-32.256 5.0176-54.3232 35.1744-49.3056 67.4304 2.5088 16.2304 11.4688 29.9008 23.808 38.8096-22.528-28.8256-9.8816-61.6448 5.3248-75.6736 32.768-28.0064 75.2128-0.4096 84.1216 6.0416z" fill="#FF7E78" p-id="31697"></path><path d="M204.9536 750.7456c12.1344 8.7552 27.648 12.9536 43.6224 10.496 32.256-5.0176 54.3232-35.1744 49.3056-67.4304-0.7168-4.4544-1.8944-8.704-3.4816-12.7488 0 0.0512-17.152 92.416-89.4464 69.6832z" fill="#E54C45" p-id="31698"></path><path d="M471.6032 257.6896c-9.9328-25.088-36.1472-40.9088-63.9488-36.608-32.256 5.0176-54.3232 35.1744-49.3056 67.4304 2.5088 16.2304 11.4688 29.9008 23.808 38.8096-22.528-28.8256-9.8816-61.6448 5.3248-75.6736 32.7168-28.0064 75.1616-0.3584 84.1216 6.0416z" fill="#FAC89B" p-id="31699"></path><path d="M639.4368 375.8592c-9.9328-25.088-36.1472-40.9088-63.9488-36.608-32.256 5.0176-54.3232 35.1744-49.3056 67.4304 2.5088 16.2304 11.4688 29.9008 23.808 38.8096-22.528-28.8256-9.8816-61.6448 5.3248-75.6736 32.7168-28.0064 75.1616-0.3584 84.1216 6.0416z" fill="#99E1B2" p-id="31700"></path><path d="M382.1568 327.3728a58.8288 58.8288 0 0 0 43.6224 10.496c32.256-5.0176 54.3232-35.1744 49.3056-67.4304-0.7168-4.4544-1.8944-8.704-3.4816-12.7488 0 0-17.2032 92.3648-89.4464 69.6832z" fill="#E48559" p-id="31701"></path><path d="M974.6432 217.0368c-4.2496-3.9424-9.3696-6.6048-15.104-8.2432 2.0992 1.4336 27.648 19.968-0.1536 70.7072-28.9792 52.8896-260.352 336.2304-350.5664 387.2256 0.512 1.6384 1.0752 3.2256 1.5872 4.8128l12.8 12.7488a18.89792 18.89792 0 0 0 26.5216 0.1536c71.3216-69.2736 400.896-396.8512 324.9152-467.4048z" fill="#F47706" p-id="31702"></path><path d="M974.6432 217.0368c-75.8272-70.4-404.8384 246.7328-475.7504 316.7744a18.85184 18.85184 0 0 0 0 26.8288l13.1072 13.056c34.2528-46.8992 311.296-287.8976 365.2096-324.6592 58.3168-41.472 102.656-24.7808 103.68-24.064a31.8976 31.8976 0 0 0-6.2464-7.936z" fill="#F7AC5C" p-id="31703"></path><path d="M281.6 787.712c-2.048 10.4448 1.8944 22.016 12.2368 28.416 54.3232 33.3824 131.4816 60.8256 222.8224 24.9344 22.272-8.7552 42.9056-21.504 59.5968-38.656 26.1632-26.88 46.08-62.9248 51.6096-114.7904a19.968 19.968 0 0 1-4.7616-3.328l-23.9616-23.808c-4.864 28.7744-20.4288 92.0064-65.9456 127.2832-36.5056 20.4288-135.9872 85.3504-251.5968-0.0512z" fill="#F6D1B8" p-id="31704"></path><path d="M512 573.696l-13.1072-13.056c-2.5088-2.5088-4.1472-5.5808-4.9664-8.8064-44.544 11.9296-88.1664 31.488-102.7584 63.2832-26.4192 57.6512-33.8432 129.8944-93.3888 153.088-9.1136 3.5328-14.5408 11.1616-16.1792 19.5072 79.6672-5.4272 103.68-74.9568 124.416-136.704s105.984-77.312 105.984-77.312z" fill="#FFFFFF" p-id="31705"></path><path d="M761.9072 592.8448c1.1264-8.5504 2.1504-17.152 3.1232-25.856 0 0.0512-78.0288 283.0848-348.3136 322.2528-71.6288 5.2224-167.2192 11.1616-295.168-46.0288 53.3504 45.7216 136.704 84.1728 256.512 81.8688 208.64-4.0448 366.6432-198.5536 383.8464-332.2368z" fill="#4479E2" p-id="31706"></path><path d="M277.9136 338.5856c0-33.9968-27.648-61.6448-61.6448-61.6448S154.624 304.5888 154.624 338.5856s27.648 61.6448 61.6448 61.6448 61.6448-27.6992 61.6448-61.6448z m-118.1696 0c0-31.1808 25.344-56.5248 56.5248-56.5248s56.5248 25.344 56.5248 56.5248-25.344 56.5248-56.5248 56.5248S159.744 369.7152 159.744 338.5856zM416.7168 341.1456c33.9968 0 61.6448-27.648 61.6448-61.6448s-27.648-61.6448-61.6448-61.6448-61.6448 27.648-61.6448 61.6448 27.648 61.6448 61.6448 61.6448z m0-118.1696c31.1808 0 56.5248 25.344 56.5248 56.5248s-25.344 56.5248-56.5248 56.5248-56.5248-25.344-56.5248-56.5248 25.344-56.5248 56.5248-56.5248zM301.1584 704.512c0-33.9968-27.648-61.6448-61.6448-61.6448s-61.6448 27.648-61.6448 61.6448 27.648 61.6448 61.6448 61.6448 61.6448-27.648 61.6448-61.6448z m-61.5936 56.5248c-31.1808 0-56.5248-25.344-56.5248-56.5248s25.344-56.5248 56.5248-56.5248 56.5248 25.344 56.5248 56.5248-25.3952 56.5248-56.5248 56.5248z" fill="#472F7E" p-id="31707"></path><path d="M988.5184 245.4528c-0.1536-12.8-4.1984-22.9888-12.1344-30.3104-39.3216-36.5568-141.7216 25.2928-244.1728 106.1376-30.464-57.2928-78.336-108.4416-146.3808-156.3136-158.5664-111.5648-349.4912-51.6096-351.2832-51.0464-2.2016 0.6144-219.392 61.9008-192.3072 225.1264 10.0352 52.224 42.6496 76.2368 62.1568 90.5728l1.6384 1.1776c16.6912 12.288 55.7568 41.0624 59.7504 73.216 3.4304 27.648-17.4592 55.5008-65.7408 87.7056-40.3456 26.88-75.3664 80.9984-52.6848 152.064 20.5312 64.3072 113.7152 183.9616 320.1536 183.9616 3.4816 0 7.0144-0.0512 10.5472-0.1024 210.1248-4.096 369.2032-200.8064 386.4064-334.4896 1.0752-8.192 2.048-16.4864 2.9696-24.832 101.6832-108.3392 221.8496-251.648 221.0816-322.8672z m-43.776-36.2496c11.4688 0 20.992 3.0208 28.16 9.6768 6.8096 6.3488 10.3424 15.3088 10.496 26.624 1.1264 101.5296-261.0176 364.3392-329.1648 430.8992-0.256 0.2048-0.4608 0.4608-0.7168 0.6656-0.768 0.7168-1.4848 1.4336-2.2016 2.1504-1.1776 1.1264-2.3552 2.2528-3.3792 3.328-4.7616 4.608-11.7248 5.7344-17.5616 3.3792-0.4608-0.2048-0.8704-0.4608-1.28-0.6656-0.7168-0.3584-1.3824-0.768-1.9968-1.1776-0.7168-0.512-1.3824-1.024-2.048-1.6384l-62.1568-61.7984-62.1568-61.7984c-0.9728-0.9728-1.792-2.0992-2.4576-3.2768a2.39104 2.39104 0 0 1-0.256-0.512 18.2272 18.2272 0 0 1-1.536-3.84c0-0.0512-0.0512-0.0512-0.0512-0.1024-0.256-1.0752-0.4096-2.1504-0.4608-3.2768 0-0.2048-0.0512-0.4096-0.0512-0.6656 0-4.4032 1.7408-8.4992 4.864-11.5712 1.024-1.024 2.0992-2.0992 3.2256-3.1744 0.8192-0.8192 1.6896-1.6384 2.56-2.5088l0.4608-0.4608c16.7424-16.4352 44.3392-43.1104 78.0288-74.1888l9.7792-9.0112 5.5296-5.0688c3.5328-3.2256 7.0144-6.4 10.5472-9.5744 1.536-1.3824 3.072-2.7648 4.608-4.1984 4.096-3.6864 8.192-7.3216 12.2368-10.9568l2.7648-2.4576c4.9664-4.4032 9.8816-8.7552 14.7456-13.0048l1.0752-0.9216c0.5632-0.512 1.1776-1.024 1.7408-1.536 1.6384-1.4336 3.2768-2.8672 4.9664-4.3008 25.7536-22.4256 52.8384-45.1584 80.128-66.7136 0.1024-0.1024 0.2048-0.2048 0.3072-0.3584 81.152-64.4608 163.1232-117.9648 211.2512-117.9648z m-447.6928 353.28l62.1568 61.7984L621.3632 686.08c0.768 0.768 1.6896 1.4848 2.6112 2.1504 0.256 0.1536 0.4608 0.4096 0.7168 0.5632 0.1536 0.1024 0.3072 0.1536 0.4608 0.256-5.1712 45.2608-21.76 81.7664-50.7392 111.5648-15.6672 16.128-35.4304 28.928-58.7264 38.0928-73.0624 28.7232-147.2512 20.3776-220.5696-24.7296-7.936-4.864-12.3392-13.7216-11.4688-23.1424 0.8192-9.3184 6.4512-16.8448 15.0016-20.1728 45.2608-17.664 61.3888-63.6416 77.0048-108.1856 5.4272-15.4624 11.0592-31.488 17.8176-46.2336 11.8784-25.9584 45.1072-46.5408 98.6624-61.2352 1.1264 2.7136 2.7648 5.2736 4.9152 7.4752z m81.7152-108.6976c-28.5696-2.9184-50.7392-27.3408-50.7392-56.1664 0-31.1808 25.344-56.5248 56.5248-56.5248 31.1296 0 56.4736 25.2928 56.5248 56.4224-22.016 19.3536-43.008 38.4-62.3104 56.2688z m180.6336 138.7008c-16.9984 131.84-174.0288 325.9904-381.44 330.0352-3.5328 0.0512-6.9632 0.1024-10.4448 0.1024-203.4688 0-295.1168-117.2992-315.2896-180.4288-21.8624-68.352 11.8272-120.3712 50.6368-146.2272 50.0736-33.3824 71.68-62.8224 67.9936-92.6208-4.3008-34.3552-44.5952-64-61.7984-76.6976l-1.6384-1.1776c-18.8928-13.8752-50.5344-37.12-60.16-87.3472C20.992 179.5584 233.728 119.4496 235.9808 118.8352 236.9536 118.528 288.256 102.4 359.2704 102.4c65.7408 0 148.3776 13.824 223.5904 66.7136 67.7376 47.616 115.2512 98.4576 145.3056 155.3408-27.8528 22.1184-55.7056 45.568-82.176 68.7616-2.304-31.9488-28.928-57.2416-61.44-57.2416-33.9968 0-61.6448 27.648-61.6448 61.6448 0 30.0032 22.016 55.6032 51.0464 60.672a3590.23104 3590.23104 0 0 0-73.1648 70.0416c-1.28 1.28-2.5088 2.4576-3.6864 3.6352-4.096 4.0448-6.3488 9.472-6.3488 15.2064 0 0.9728 0.1536 1.8944 0.256 2.816-55.1936 15.104-89.6 36.6592-102.144 64.0512-6.8608 15.0016-12.544 31.1296-17.9712 46.6944-15.9232 45.4144-30.9248 88.32-74.0352 105.1136-10.24 3.9936-17.2544 13.3632-18.2272 24.5248-1.024 11.3152 4.3008 22.0672 13.8752 27.9552 45.7216 28.1088 91.7504 42.1888 137.728 42.1888 29.2352 0 58.368-5.6832 87.3984-17.1008 23.9616-9.4208 44.288-22.6304 60.5184-39.2704 29.44-30.2592 46.4384-67.2768 51.9168-112.9472 0.768 0.256 1.536 0.512 2.3552 0.6656 0.256 0.0512 0.5632 0.0512 0.8192 0.1024 1.0752 0.1536 2.1504 0.3072 3.2768 0.3072h0.0512c0.4096 0 0.8192-0.1024 1.1776-0.1024 0.9216-0.0512 1.8944-0.1024 2.816-0.256 0.3584-0.0512 0.768-0.2048 1.1264-0.3072 0.9216-0.2048 1.8944-0.4608 2.816-0.8192 0.4608-0.1536 0.8192-0.4608 1.28-0.6656 0.8192-0.4096 1.6384-0.7168 2.4064-1.2288 1.1776-0.768 2.304-1.6384 3.328-2.6624 1.28-1.2288 2.56-2.5088 3.8912-3.7888 0.4096-0.3584 0.8192-0.768 1.2288-1.1776 24.576-23.9616 62.9248-62.1056 104.96-106.7008-0.7168 5.9904-1.4336 11.9808-2.2016 17.92z" fill="#472F7E" p-id="31708"></path></svg>